<?xml version="1.0" encoding="UTF-8" standalone="no"?>
<!-- Created with Inkscape (http://www.inkscape.org/) -->

<svg
   version="1.1"
   id="svg2"
   width="936.38379"
   height="1013.1173"
   viewBox="0 0 936.38379 1013.1173"
   sodipodi:docname="FS.svg"
   inkscape:version="1.2.2 (732a01da63, 2022-12-09)"
   xmlns:inkscape="http://www.inkscape.org/namespaces/inkscape"
   xmlns:sodipodi="http://sodipodi.sourceforge.net/DTD/sodipodi-0.dtd"
   xmlns:xlink="http://www.w3.org/1999/xlink"
   xmlns="http://www.w3.org/2000/svg"
   xmlns:svg="http://www.w3.org/2000/svg">
  <defs
     id="defs6">
    <clipPath
       clipPathUnits="userSpaceOnUse"
       id="clipPath218">
      <path
         d="m 3304.121,888.463 h 128.677 l 33.846,189.956 h -566.863 l -56.424,-316.607 h 438.187 l -11.282,-63.319 h -309.497 l -11.296,-63.318 h 373.822 l 33.873,189.969 H 2918.95 l 33.86,189.956 h 438.187 l -11.269,-63.318 z M 2938.174,571.856 h 64.312 l -45.115,-253.275 h -193.015 l 45.128,253.275 h 0.014 l 11.282,63.319 11.282,63.318 h 64.284 l -11.268,-63.318 -11.282,-63.319 -33.82,-189.956 h 64.312 z"
         id="path216" />
    </clipPath>
    <linearGradient
       x1="0"
       y1="0"
       x2="1"
       y2="0"
       gradientUnits="userSpaceOnUse"
       gradientTransform="matrix(-632.90393,-905.61853,-905.61853,632.90393,3328.97,1167.9219)"
       spreadMethod="pad"
       id="linearGradient232">
      <stop
         style="stop-opacity:1;stop-color:#1dd3f7"
         offset="0"
         id="stop224" />
      <stop
         style="stop-opacity:1;stop-color:#1dd3f7"
         offset="0.00000028"
         id="stop226" />
      <stop
         style="stop-opacity:1;stop-color:#119ed3"
         offset="1"
         id="stop228" />
      <stop
         style="stop-opacity:1;stop-color:#119ed3"
         offset="1"
         id="stop230" />
    </linearGradient>
    <linearGradient
       inkscape:collect="always"
       xlink:href="#linearGradient232"
       id="linearGradient533"
       gradientUnits="userSpaceOnUse"
       gradientTransform="matrix(-632.90393,-905.61853,-905.61853,632.90393,3328.97,1167.9219)"
       x1="0"
       y1="0"
       x2="1"
       y2="0"
       spreadMethod="pad" />
  </defs>
  <sodipodi:namedview
     id="namedview4"
     pagecolor="#505050"
     bordercolor="#eeeeee"
     borderopacity="1"
     inkscape:showpageshadow="0"
     inkscape:pageopacity="0"
     inkscape:pagecheckerboard="0"
     inkscape:deskcolor="#505050"
     showgrid="false"
     inkscape:zoom="0.14465046"
     inkscape:cx="-342.20424"
     inkscape:cy="1451.7756"
     inkscape:window-width="1920"
     inkscape:window-height="1009"
     inkscape:window-x="-8"
     inkscape:window-y="-8"
     inkscape:window-maximized="1"
     inkscape:current-layer="g10" />
  <g
     id="g10"
     inkscape:groupmode="layer"
     inkscape:label="Page 1"
     transform="matrix(1.3333333,0,0,-1.3333333,-7177.4653,1774.9245)">
    <g
       id="g529"
       clip-path="url(#clipPath218)"
       transform="matrix(0.98705253,0,0,0.98705253,2659.0809,261.81822)">
      <g
         id="g527">
        <g
           id="g525">
          <path
             d="m 3304.121,888.463 h 128.677 l 33.846,189.956 h -566.863 l -56.424,-316.607 h 438.187 l -11.282,-63.319 h -309.497 l -11.296,-63.318 h 373.822 l 33.873,189.969 H 2918.95 l 33.86,189.956 h 438.187 l -11.269,-63.318 z M 2938.174,571.856 h 64.312 l -45.115,-253.275 h -193.015 l 45.128,253.275 h 0.014 l 11.282,63.319 11.282,63.318 h 64.284 l -11.268,-63.318 -11.282,-63.319 -33.82,-189.956 h 64.312 z"
             style="fill:url(#linearGradient533);stroke:none"
             id="path523" />
        </g>
      </g>
    </g>
  </g>
</svg>
